<!DOCTYPE svg PUBLIC "-//W3C//DTD SVG 1.1//EN" "http://www.w3.org/Graphics/SVG/1.1/DTD/svg11.dtd"><svg aria-hidden="true" xmlns="http://www.w3.org/2000/svg" xmlns:xlink="http://www.w3.org/1999/xlink"><symbol viewBox="-25 0 98 98" fill="none" id="arrow" xmlns="http://www.w3.org/2000/svg">
<path d="M18.3411 74.1924C18.3411 72.0809 18.3411 69.7582 18.3411 67.6467C18.5525 49.0651 18.9754 30.2725 19.1869 11.6909C19.1869 9.57939 19.1869 7.679 19.3984 5.56747C19.6098 2.82247 20.2442 -0.555987 23.8389 0.0774737C25.3191 0.288627 27.0108 3.45593 27.2222 5.35632C28.0681 20.9817 28.7024 36.3959 29.3368 52.0213C29.5483 55.6109 29.3368 59.2005 31.2399 63.0013C33.7774 58.7782 35.892 54.344 38.6409 50.332C39.9096 48.4317 43.0815 46.3201 44.9846 46.7424C48.7908 47.5871 48.3679 51.8101 47.0992 54.344C41.6013 67.0132 36.1034 79.8936 29.5483 92.1405C25.3191 99.9532 18.9754 99.9532 14.7463 92.1405C9.03698 81.7939 4.80785 70.6028 0.155803 59.834C-0.478567 58.567 1.00163 56.4555 1.42454 54.7663C3.11619 55.3997 5.65367 55.3997 6.4995 56.6667C8.61407 59.2005 9.88281 62.579 11.5745 65.5351C13.2661 68.7024 14.9578 71.8697 16.6494 74.8259C17.0723 74.4036 17.7067 74.1924 18.3411 74.1924Z" fill="currentColor"/>
</symbol><symbol viewBox="0 0 512 512" id="autumn" xmlns="http://www.w3.org/2000/svg"><path fill="currentColor" d="M427.313 26.188c-4.8.012-9.63 1.264-14.032 3.406 9.05 78.836 5.48 143.09-43.217 231.844 63.85-73.5 80.035-178.61 74.75-228.344-5.21-4.886-11.33-6.922-17.5-6.907zm-91.032 48.75c-98.73 2.416-95.504 294.125-310.155 346.812C229.537 547.755 623.41 365.046 450.03 152.812c-.923 2.79-1.863 5.586-2.81 8.407 10.803 52.818 6.81 110.217-20.44 172.874 3.956-40.244 3.315-78.758-2.905-115.656-7.34 14.28-16.703 28.132-26.28 42.062 1.357 40.016-6.12 82.247-25.72 127.313 3.143-32.007 2.588-62.875-.563-92.875-12.835 14.593-27.163 28.624-43.218 41.468-3.802 25.377-10.96 51.658-22.78 78.844 2.12-21.604 2.46-42.944 1.748-63.656C271.472 375.8 229.21 395.157 178 405.906c43.122-24.2 77.516-49.167 105.688-74.75-18.532-3.86-37.607-6.38-56.657-8.156 25.186-6.363 50.08-8.858 74.19-8.188 17.226-17.617 31.62-35.325 43.217-53.718-32.133-5.78-64.654-7.476-97.53-5.28 37.746-18.268 75.352-24.643 112.718-22.19 9.655-19.872 16.26-40.42 21.03-61.31-28.417-2.687-59.37 4.05-94.624 12.842 31.834-29.16 66.23-41.838 100.44-45.562 1.778-14.472 2.736-28.956 2.905-43.906-19.706-14.02-36.318-20.438-50.75-20.75-.79-.018-1.566-.02-2.344 0z"/></symbol><symbol fill="currentColor" viewBox="0 0 512 512" id="autumn-1" xmlns="http://www.w3.org/2000/svg"><title>ionicons-v5-p</title><path d="M456.26,139.37c-16.77-16.73-39.17-28.41-65.17-34a16,16,0,0,1-11.19-9,142.24,142.24,0,0,0-42.19-53.21C314.48,25.39,286.23,16,256,16a140.24,140.24,0,0,0-93.5,35.32c-24.2,21.56-40.91,51.34-48.43,85.83a16.05,16.05,0,0,1-11.72,12.18c-25,6.3-35.71,12.54-49.21,24.56C34,190.93,24,214.14,24,240.8c0,30.55,11.23,55.64,32.47,72.56C75.08,328.17,100.5,336,130,336H364c33.2,0,64.11-11.46,87-32.28,23.84-21.65,37-51.67,37-84.52C488,187.71,477,160.11,456.26,139.37Z"/><path d="M112,448a16,16,0,0,1-13.3-24.88l32-48a16,16,0,0,1,26.62,17.76l-32,48A16,16,0,0,1,112,448Z"/><path d="M160,496a16,16,0,0,1-13.29-24.88l64-96a16,16,0,0,1,26.62,17.76l-64,96A16,16,0,0,1,160,496Z"/><path d="M272,448a16,16,0,0,1-13.3-24.88l32-48a16,16,0,0,1,26.62,17.76l-32,48A16,16,0,0,1,272,448Z"/><path d="M320,496a16,16,0,0,1-13.3-24.88l64-96a16,16,0,0,1,26.62,17.76l-64,96A16,16,0,0,1,320,496Z"/></symbol><symbol fill="currentColor" id="spring" viewBox="0 0 128 128" xml:space="preserve" xmlns="http://www.w3.org/2000/svg">
<g>
	<path d="M64.2,22.4l0.2-0.1l4.2-2.1l-2.8,4c0,0-3.7,5.1,1.7,7c0,0,0.1,0,0.1,0l0,0c5.5,1.9,5.5-4.6,5.5-4.6l0.2-4.8l2,4.3l0,0.1   c0,0,1.2,2.7,3.4,3.2c1,0.2,2.2,0,3.5-1.2c4.4-3.8-1.2-7.1-1.2-7.1l-0.1,0L77,18.5l4.5,0.4l0.3,0.1c0,0,4.8,0.5,5.3-3.1   c0.1-0.5,0-1.1-0.1-1.8c-1.1-5.8-6.7-2.5-6.7-2.5l-0.2,0.1L76,13.7l2.8-4c0,0,3.7-5.1-1.7-7c0,0-0.1,0-0.1,0c0,0,0,0,0,0   c-5.5-1.9-5.5,4.5-5.5,4.5l-0.3,4.9l-2-4.3l-0.1-0.1c0,0-1.4-3.2-4-3.3c-0.9,0-1.8,0.3-2.9,1.3c-4.4,3.8,1.2,7.1,1.2,7.1l0.1,0   l4.1,2.6L63,15l-0.3-0.1c0,0-4.8-0.5-5.3,3.1c-0.1,0.5,0,1.1,0.1,1.8C58.6,25.6,64.2,22.4,64.2,22.4z"/>
	<path d="M105.5,91.2h-30l21.3-26.5c0.9-1.1,0.9-2.7,0-3.6c-1.1-0.9-2.5-0.8-3.5,0.1l-14.1,17V60.3c0-1.1-0.9-1.9-2-1.9   c-1.1,0-1.9,0.8-1.9,1.9v18.4l-21,26.8l-13.8,10.7V108V97.9V79l28-28c1.2-1.2,1.3-3.4,0-4.7c-1.2-1.2-3.4-1.1-4.6,0.1L50.2,60   l-1.5-16.9l13.9-13.9c-0.5-1.5-0.2-3,0.3-4.2c-0.9,0.2-1.9,0.4-3,0.2l-12,12L44.2,3.5c0-1.5-1.2-2.5-2.5-2.5   c-1.5,0-2.4,1.2-2.4,2.5l2.1,22L28.8,12.9c-0.8-0.8-2-0.7-2.8,0c-0.8,0.8-0.7,1.9,0,2.7l13,13l3.9,33.8L30.5,74.7   c0,0-2.1,2.3-2.1,5c0,1.3,0,12.2,0,23.5c0,6,0,12.2,0,16.9c0,2,0,3.4,0,4.4h14l11.7-9.1h26.1c1.7,0,3.4-1.5,3.4-3.4   c0-1.7-1.6-3.2-3.4-3.2H61l11-13h33.7c1.3,0,2.3-1.1,2.3-2.4C107.9,92.2,106.8,91.2,105.5,91.2z"/>
</g>
</symbol><symbol fill="currentColor" viewBox="0 0 64 64" id="summer" xmlns="http://www.w3.org/2000/svg">

<title/>

<g id="eSun">

<circle cx="32" cy="32" r="15"/>

<path d="M32,13a1,1,0,0,1-1-1V3a1,1,0,0,1,2,0v9A1,1,0,0,1,32,13Z"/>

<path d="M17.8574,18.8579a.9964.9964,0,0,1-.707-.293l-4.2422-4.2426a1,1,0,1,1,1.4141-1.4141l4.2422,4.2427a1,1,0,0,1-.7071,1.707Z"/>

<path d="M12,33H3a1,1,0,0,1,0-2h9a1,1,0,0,1,0,2Z"/>

<path d="M13.6152,51.3848a1,1,0,0,1-.707-1.7071L17.15,45.4351a1,1,0,1,1,1.4141,1.414l-4.2422,4.2427A.9969.9969,0,0,1,13.6152,51.3848Z"/>

<path d="M32,62a1,1,0,0,1-1-1V52a1,1,0,0,1,2,0v9A1,1,0,0,1,32,62Z"/>

<path d="M50.3848,51.3848a.9969.9969,0,0,1-.7071-.293l-4.2422-4.2427a1,1,0,1,1,1.4141-1.414l4.2422,4.2426a1,1,0,0,1-.707,1.7071Z"/>

<path d="M61,33H52a1,1,0,0,1,0-2h9a1,1,0,0,1,0,2Z"/>

<path d="M46.1426,18.8579a1,1,0,0,1-.7071-1.707l4.2422-4.2427a1,1,0,0,1,1.4141,1.4141L46.85,18.5649A.9964.9964,0,0,1,46.1426,18.8579Z"/>

</g>

</symbol><symbol fill="currentColor" id="winter" viewBox="0 0 333.316 333.316" xml:space="preserve" xmlns="http://www.w3.org/2000/svg">
<path d="M315.797,224.574l-5.557-20.818l-39.684,10.592l-33.572-19.441l41.764-18.377v-19.75l-41.767-18.377l33.572-19.439  l39.689,10.59l5.557-20.818l-18.861-5.025l19.361-11.197l-10.82-18.645l-19.324,11.188l5.029-18.855l-20.818-5.551l-10.588,39.674  l-33.473,19.338l4.918-45.148l-17.061-9.877l-36.758,26.892V52.824l29.045-29.018L191.221,8.539l-13.816,13.807V0h-21.531v22.346  L142.064,8.539l-15.236,15.268l29.045,29.018v38.703l-36.756-26.892l-17.061,9.877l4.924,45.148l-33.477-19.336l-10.59-39.676  l-20.816,5.553l5.027,18.854l-19.32-11.188L17.018,92.512l19.322,11.197l-18.857,5.025l5.557,20.818l39.684-10.59l33.576,19.439  l-41.771,18.377v19.75l41.768,18.377l-33.576,19.441l-39.678-10.592l-5.557,20.818l18.853,5.025l-19.32,11.195l10.787,18.652  l19.318-11.18l-5.029,18.84l20.818,5.559l10.59-39.682l33.479-19.338l-4.924,45.15l17.061,9.879l36.756-26.893V280.5l-29.045,29.004  l15.236,15.266l13.809-13.805v22.352h21.531v-22.352l13.816,13.805l15.229-15.266L177.404,280.5v-38.717l36.758,26.893l17.061-9.879  l-4.92-45.15l33.475,19.338l10.59,39.682l20.818-5.559l-5.029-18.838l19.322,11.178l10.82-18.652l-19.361-11.193L315.797,224.574z   M247.668,166.654l-33.779,14.885l-25.75-14.887l25.746-14.877L247.668,166.654z M207.148,96.471l-3.975,36.578l-25.77,14.93  v-29.721L207.148,96.471z M126.129,96.471l29.744,21.787v29.721l-25.771-14.93L126.129,96.471z M85.609,166.654l33.783-14.879  l25.748,14.877l-25.752,14.887L85.609,166.654z M126.129,236.84l3.973-36.582l25.771-14.924v29.717L126.129,236.84z M207.148,236.84  l-29.744-21.789v-29.717l25.77,14.924L207.148,236.84z"/>
</symbol></svg>